<svg id="Layer_1" data-name="Layer 1" xmlns="http://www.w3.org/2000/svg" viewBox="0 0 419.35 528.46">
  <g id="Perspective_Text" data-name="Perspective Text">
    <g>
      <path d="M604.63,582.64C609,589.71,615,594.39,621,592c8.33-3.3,12.9-19.87,12.9-41.25,0-19.8-3.14-30.91-11.55-42-11.13-13.54-18.6-34.51-18.6-68.82,0-37.92,9.48-60.66,22.38-53.27,6.21,3.56,10.49,11,13,17.54l-2,20.92c-1.85-4.5-5.74-12.54-11.27-15.09-8.92-4.11-12.52,13.27-12.52,29.2,0,21.81,4.2,33.21,13.17,46.36,10,14.67,14.78,31.49,14.78,61.47,0,31.49-6.35,62-20.87,69.33-6.56,3.32-14.19.4-18.26-6.38Z" transform="translate(-338.57 -229.5)"/>
      <path d="M654,532.55c.14,33.63,5.28,45.42,10.89,43.17,3.8-1.52,6-5.23,7.88-9.51l.84,15.61c-1.74,4.37-4.81,10-9.47,12.37-9.79,5-16.2-20.44-16.2-63.13s6.2-74.6,15.52-72,11.69,38,11.69,60.28c0,4.5-.11,8-.17,10.27ZM670.41,514c.06-14.42-1.34-37.06-7.36-38.15-5.8-1-8.47,21.62-8.95,38.85Z" transform="translate(-338.57 -229.5)"/>
      <path d="M680.91,498.14c0-12.06,0-22-.21-31.65l3.87,1,.24,18.88h.1c1.14-10.57,3.75-20.34,7.32-19.35,2.86.8,7.09,10.47,7.09,45.77v61.45L695.76,576V515.13c0-17-1.21-31.39-4.8-32-2.62-.43-4.72,8.77-5.43,20.17-.19,2.57-.29,6.09-.29,9.61v68.23l-4.33,2.14Z" transform="translate(-338.57 -229.5)"/>
      <path d="M704.29,553.36c.94,3.13,2.58,6.13,4.11,5.51,2.16-.88,3.15-7.48,3.15-15.22,0-8.13-.83-12.43-3-16.76-3-5.82-4.54-15.52-4.54-27.43,0-16,2.28-28.53,5.87-27.53,1.62.45,3,3.51,3.87,6.78l-.7,12.08c-.61-2.39-1.75-5.66-3.24-5.92-1.77-.31-2.78,5.53-2.78,12.75,0,8,1,11.63,3.15,16.29,2.74,6,4.1,13.79,4.1,27.43,0,16.09-2.1,28.52-5.93,30.47-1.85.93-3.61-.83-4.85-4.35Z" transform="translate(-338.57 -229.5)"/>
      <path d="M719.12,523.42c.06,21.62,2.21,29.66,4.6,28.71,1.65-.67,2.62-2.93,3.45-5.62l.37,10.49c-.77,2.74-2.12,6.14-4.14,7.17-4.13,2.09-6.75-14.78-6.75-41.89s2.53-47.77,6.45-46.68c4.09,1.14,5.13,24.74,5.13,39.66,0,3-.05,5.38-.07,6.89Zm7-11.76c0-9.57-.59-24.55-3.2-25-2.45-.44-3.56,14.24-3.76,25.32Z" transform="translate(-338.57 -229.5)"/>
      <path d="M730.84,504.26c0-9.32,0-17.35-.09-24.73l1.77.46.06,15.31h.09c.5-10.35,1.67-16.59,2.94-16.23.21.05.36.25.52.61v12.9a.91.91,0,0,0-.63-.56c-1.34-.2-2.31,7.17-2.58,17.74,0,1.93-.09,4.18-.09,6.59v41.42l-2,1Z" transform="translate(-338.57 -229.5)"/>
      <path d="M739.14,481.71,741,522.42c.3,6.44.55,12.26.74,18.08l0,0c.21-5.93.47-11.84.77-18.31l1.7-39.13,1.6.42-3.38,69.59-1.58.77-3.64-72.6Z" transform="translate(-338.57 -229.5)"/>
      <path d="M747.89,519.38c0,16.31,1.26,22.54,2.64,22,1-.39,1.53-2.06,2-4.06l.22,8.08c-.46,2-1.25,4.52-2.43,5.12-2.37,1.2-3.85-11.7-3.85-32s1.43-36,3.68-35.34,3,18.76,3,30.23c0,2.33,0,4.13,0,5.3Zm4-8.81c0-7.33-.34-18.78-1.86-19.05s-2,10.86-2.15,19.22Z" transform="translate(-338.57 -229.5)"/>
      <path d="M754.72,504.88c0-7.21,0-13.41-.05-19.12l1.06.28,0,11.88h.05c.3-8.05,1-12.95,1.78-12.74.13,0,.22.19.33.46v10.09c-.12-.26-.24-.4-.39-.42-.82-.13-1.41,5.63-1.57,13.84,0,1.5-.05,3.25-.05,5.12v32.16l-1.2.59Z" transform="translate(-338.57 -229.5)"/>
    </g>
  </g>
  <path d="M469.09,453.54c.41-43-112.92-120.86-112.92-120.86l112.92,41L356.17,232s.33-.5,112.92,64.7S539.5,399.5,599.84,471.87C540.5,527.5,582.5,635.5,469.09,693.09L356.17,750.33,469.09,613.24,356.17,645.92s112.51-71.65,112.92-112.53Z" transform="translate(-338.57 -229.5)" style="stroke: #000;stroke-miterlimit: 10;stroke-width: 5px"/>
</svg>
